<?xml version="1.0" encoding="UTF-8"?>
<svg id="Layer_1" data-name="Layer 1" xmlns="http://www.w3.org/2000/svg" xmlns:xlink="http://www.w3.org/1999/xlink" viewBox="0 0 340.95 160.84">
  <defs>
    <clipPath id="clippath">
      <rect x="46.59" y="-18.82" width="247.78" height="157.52" fill="none"/>
    </clipPath>
    <clipPath id="clippath-1">
      <rect x="46.59" y="-18.82" width="247.78" height="157.52" fill="none"/>
    </clipPath>
  </defs>
  <g>
    <path d="M50.08,142.56c.64-.02,1.09-.17,1.37-.45.27-.28.43-.61.46-.99.04-.38.05-1.05.05-1.99v-12.05c0-.78.03-1.45.08-2.01l-1.97.11v-1.23c2.55-.04,4.58-.06,6.09-.06,2.71,0,4.77.48,6.16,1.45,1.39.97,2.09,2.39,2.09,4.27,0,1.08-.28,2.11-.83,3.1-.56.99-1.51,1.8-2.87,2.46s-3.15.98-5.39.98c-.42,0-.75,0-.98-.03v4.04c0,.99-.03,1.72-.08,2.2l2.51-.14v1.25h-6.69v-.92ZM58.97,134.43c.86-.42,1.55-1.02,2.05-1.81.5-.79.75-1.72.75-2.78,0-1.67-.5-2.9-1.5-3.68-1-.78-2.39-1.17-4.15-1.17-.62,0-1.05.13-1.3.39s-.39.57-.42.93c-.04.36-.05,1.03-.05,1.99v6.67c.45.06,1.05.08,1.77.08,1.04,0,1.99-.21,2.85-.63Z"/>
    <path d="M66.5,142.56c.64-.02,1.09-.17,1.37-.45.27-.28.43-.61.46-.99.04-.38.05-1.05.05-1.99v-12.05c0-.78.03-1.45.08-2.01l-1.97.11v-1.23c1.89-.04,3.32-.06,4.29-.06.87,0,1.53,0,1.97.03,2.57.04,4.45.48,5.64,1.33,1.19.85,1.79,2.07,1.79,3.67.02,1.28-.35,2.44-1.12,3.46-.76,1.02-2.09,1.73-3.99,2.12.31.24.59.53.85.87s.6.86,1.04,1.56l1.86,2.99c.4.65.73,1.15,1,1.49.26.34.58.62.96.84.37.21.83.32,1.38.32v.92h-3.44c-.49-.43-.91-.87-1.24-1.33-.34-.46-.73-1.05-1.19-1.77l-1.83-2.98-.36-.59c-.29-.5-.55-.91-.76-1.23-.22-.32-.46-.59-.71-.84-.16.02-.42.03-.76.03-.49,0-.86,0-1.09-.03v5.41c0,.99-.03,1.72-.08,2.2l1.97-.11v1.23h-6.15v-.92ZM77.53,129.23c0-1.41-.4-2.47-1.2-3.18-.8-.71-2.03-1.06-3.69-1.06-.64,0-1.09.13-1.37.39-.27.26-.43.58-.46.95-.04.37-.05,1.03-.05,1.98v5.36c.55.04.95.06,1.2.06,3.71,0,5.57-1.5,5.57-4.49Z"/>
    <path d="M87.66,142.45c-1.46-.99-2.53-2.25-3.22-3.81-.69-1.55-1.04-3.19-1.04-4.92s.36-3.26,1.08-4.83c.72-1.56,1.79-2.85,3.22-3.86,1.43-1.01,3.16-1.52,5.2-1.52s3.87.51,5.34,1.52,2.56,2.3,3.29,3.86c.73,1.56,1.09,3.17,1.09,4.83s-.36,3.24-1.08,4.81c-.72,1.57-1.79,2.86-3.22,3.88-1.43,1.01-3.16,1.52-5.2,1.52-2.18,0-4.01-.49-5.46-1.48ZM96.82,141.54c1.01-.83,1.78-1.89,2.29-3.19s.78-2.67.78-4.1c0-1.58-.28-3.11-.85-4.59s-1.38-2.69-2.46-3.63c-1.07-.94-2.33-1.41-3.77-1.41s-2.64.41-3.66,1.24-1.79,1.9-2.31,3.22-.78,2.7-.78,4.13.26,2.94.79,4.42c.53,1.48,1.33,2.71,2.4,3.68,1.07.98,2.38,1.46,3.91,1.46,1.42,0,2.63-.41,3.65-1.24Z"/>
    <path d="M109.14,143.57c-.87-.24-1.62-.6-2.28-1.06l.14,1.2h-1.42l-.16-5.94h1.07c.09,1.6.63,2.83,1.61,3.7.98.87,2.23,1.3,3.74,1.3,1.11,0,2.04-.31,2.8-.93.75-.62,1.13-1.47,1.13-2.55,0-.8-.21-1.48-.64-2.05-.43-.57-.96-1.04-1.58-1.42-.63-.38-1.48-.82-2.55-1.33-1.22-.6-2.19-1.12-2.91-1.56-.72-.45-1.33-1.04-1.84-1.77-.51-.73-.76-1.64-.76-2.72,0-.74.17-1.49.5-2.23.34-.74.92-1.38,1.75-1.9.83-.52,1.92-.78,3.29-.78.82,0,1.64.11,2.47.32.83.21,1.59.58,2.28,1.1l-.11-1.2h1.39v6.14h-.98c-.09-1.47-.55-2.71-1.38-3.72-.83-1.01-1.99-1.52-3.48-1.52-1.09,0-1.95.31-2.57.93-.62.62-.93,1.4-.93,2.33,0,.74.21,1.38.63,1.92.42.54.93.99,1.53,1.34s1.45.79,2.54,1.31c1.24.58,2.23,1.1,2.99,1.56.75.46,1.4,1.07,1.93,1.83.53.75.79,1.68.79,2.78s-.25,1.96-.75,2.76c-.5.8-1.23,1.42-2.2,1.87-.96.45-2.11.67-3.44.67-.86,0-1.72-.12-2.58-.36Z"/>
    <path d="M120.81,142.56c.64-.02,1.09-.17,1.37-.45.27-.28.43-.61.46-.99.04-.38.05-1.05.05-1.99v-12.05c0-.78.03-1.45.08-2.01l-1.97.11v-1.23c2.55-.04,4.58-.06,6.09-.06,2.71,0,4.77.48,6.16,1.45,1.39.97,2.09,2.39,2.09,4.27,0,1.08-.28,2.11-.83,3.1-.56.99-1.51,1.8-2.87,2.46s-3.15.98-5.39.98c-.42,0-.75,0-.98-.03v4.04c0,.99-.03,1.72-.08,2.2l2.51-.14v1.25h-6.69v-.92ZM129.7,134.43c.86-.42,1.55-1.02,2.05-1.81.5-.79.75-1.72.75-2.78,0-1.67-.5-2.9-1.5-3.68-1-.78-2.39-1.17-4.15-1.17-.62,0-1.05.13-1.3.39s-.39.57-.42.93c-.04.36-.05,1.03-.05,1.99v6.67c.45.06,1.05.08,1.77.08,1.04,0,1.99-.21,2.85-.63Z"/>
    <path d="M137.23,142.56c.64-.02,1.09-.17,1.37-.45.27-.28.43-.61.46-.99.04-.38.05-1.05.05-1.99v-12.05c0-.78.03-1.45.08-2.01l-1.97.11v-1.23h13.14l.14,4.88h-.9c0-1.52-.32-2.57-.97-3.12-.65-.56-1.55-.82-2.72-.78l-2.35.06c-.66.02-1.13.14-1.42.38-.29.23-.47.56-.55.98-.07.42-.11,1.07-.11,1.97v4.46l5.13.03-.19-2.4h1.2v5.86h-.9c0-.69-.08-1.21-.25-1.58s-.41-.6-.75-.73c-.34-.12-.81-.18-1.41-.18l-.85.03-1.99.08v6.39c0,.97-.03,1.69-.08,2.18l5.22-.08c1.27-.02,2.25-.35,2.92-.99s1.01-1.75,1.01-3.33h.93l-.16,5.44h-14.09v-.92Z"/>
    <path d="M158.46,142.62c-1.41-.87-2.51-2.06-3.3-3.57-.79-1.51-1.19-3.18-1.19-5.02s.36-3.53,1.08-5.13c.72-1.6,1.79-2.9,3.22-3.89,1.43-.99,3.15-1.49,5.17-1.49s3.84.57,5.52,1.7l-.14-1.51h1.47v6.47h-.98c-.18-1.73-.78-3.08-1.79-4.06-1.01-.98-2.31-1.46-3.89-1.46-1.29,0-2.47.37-3.54,1.1-1.06.74-1.91,1.78-2.53,3.14-.62,1.36-.93,2.93-.93,4.71s.33,3.24.98,4.59c.66,1.35,1.54,2.4,2.65,3.15s2.34,1.13,3.69,1.13c1.22,0,2.39-.28,3.52-.84,1.13-.56,2.06-1.35,2.79-2.37l.71.59c-1.06,1.51-2.27,2.56-3.63,3.17-1.37.6-2.73.91-4.1.91-1.78,0-3.38-.44-4.79-1.31Z"/>
    <path d="M177.48,142.56c.78-.04,1.29-.26,1.52-.67.23-.41.34-1.04.34-1.9v-.86l.03-14.14-2.81.03c-1.13,0-1.93.39-2.42,1.16s-.72,1.99-.72,3.67h-1.01l.16-5.89h15.92l.16,5.89h-1.04c-.02-1.17-.13-2.11-.34-2.8-.21-.7-.56-1.22-1.07-1.56s-1.21-.52-2.14-.52h-2.32l-.03,15.2c0,.99-.03,1.72-.08,2.2l2.27-.11v1.23h-6.42v-.92Z"/>
    <path d="M197.96,142.56c.64-.02,1.09-.17,1.37-.45.27-.28.43-.61.46-.99.04-.38.05-1.05.05-1.99v-12.05c0-.78.03-1.45.08-2.01l-1.97.11v-1.23h6.14v.92c-.64.02-1.09.17-1.37.45-.27.28-.43.61-.46.99-.04.38-.05,1.05-.05,1.99v4.63h9.78v-5.86c0-.78.03-1.45.08-2.01l-1.97.11v-1.23h6.14v.92c-.64.02-1.09.17-1.37.45-.27.28-.43.61-.46.99-.04.38-.05,1.05-.05,1.99v11.86c0,.99-.03,1.72-.08,2.2l1.97-.11v1.23h-6.14v-.92c.64-.02,1.09-.17,1.37-.45.27-.28.43-.61.46-.99.04-.38.05-1.05.05-1.99v-5.08l-9.78.11v6c0,.99-.03,1.72-.08,2.2l1.97-.11v1.23h-6.14v-.92Z"/>
    <path d="M223.03,142.45c-1.46-.99-2.53-2.25-3.22-3.81-.69-1.55-1.04-3.19-1.04-4.92s.36-3.26,1.08-4.83c.72-1.56,1.79-2.85,3.22-3.86,1.43-1.01,3.16-1.52,5.2-1.52s3.87.51,5.34,1.52,2.56,2.3,3.29,3.86c.73,1.56,1.09,3.17,1.09,4.83s-.36,3.24-1.08,4.81c-.72,1.57-1.79,2.86-3.22,3.88-1.43,1.01-3.16,1.52-5.2,1.52-2.18,0-4.01-.49-5.46-1.48ZM232.19,141.54c1.01-.83,1.78-1.89,2.29-3.19s.78-2.67.78-4.1c0-1.58-.28-3.11-.85-4.59s-1.38-2.69-2.46-3.63c-1.07-.94-2.33-1.41-3.77-1.41s-2.64.41-3.66,1.24-1.79,1.9-2.31,3.22-.78,2.7-.78,4.13.26,2.94.79,4.42c.53,1.48,1.33,2.71,2.4,3.68,1.07.98,2.38,1.46,3.91,1.46,1.42,0,2.63-.41,3.65-1.24Z"/>
    <path d="M244.89,142.88c-1.12-.7-1.92-1.77-2.4-3.21-.48-1.44-.72-3.34-.72-5.7v-5.66c0-1.19.04-2.27.11-3.24l-1.97.08v-1.2h6.12v.92c-.8,0-1.31.21-1.53.64s-.33.95-.33,1.56v7.03c0,1.62.14,3.02.42,4.2.28,1.18.84,2.15,1.67,2.9.83.75,2.02,1.13,3.56,1.13,1.89,0,3.3-.67,4.22-1.99.92-1.33,1.4-3.14,1.43-5.43l.08-7.84c0-.78.03-1.45.08-2.01l-1.94.11v-1.23h5.08v.92c-.66.02-1.12.17-1.39.45-.27.28-.43.61-.46.99-.04.38-.05,1.05-.05,1.99l-.05,6.47c-.02,2.7-.61,4.9-1.76,6.6-1.16,1.7-3.02,2.55-5.58,2.55-1.93,0-3.46-.35-4.58-1.05Z"/>
    <path d="M264.91,143.57c-.87-.24-1.62-.6-2.28-1.06l.14,1.2h-1.42l-.16-5.94h1.07c.09,1.6.63,2.83,1.61,3.7.98.87,2.23,1.3,3.74,1.3,1.11,0,2.04-.31,2.8-.93.75-.62,1.13-1.47,1.13-2.55,0-.8-.21-1.48-.64-2.05-.43-.57-.96-1.04-1.58-1.42-.63-.38-1.48-.82-2.55-1.33-1.22-.6-2.19-1.12-2.91-1.56-.72-.45-1.33-1.04-1.84-1.77-.51-.73-.76-1.64-.76-2.72,0-.74.17-1.49.5-2.23.34-.74.92-1.38,1.75-1.9.83-.52,1.92-.78,3.29-.78.82,0,1.64.11,2.47.32.83.21,1.59.58,2.28,1.1l-.11-1.2h1.39v6.14h-.98c-.09-1.47-.55-2.71-1.38-3.72-.83-1.01-1.99-1.52-3.48-1.52-1.09,0-1.95.31-2.57.93-.62.62-.93,1.4-.93,2.33,0,.74.21,1.38.63,1.92.42.54.93.99,1.53,1.34s1.45.79,2.54,1.31c1.24.58,2.23,1.1,2.99,1.56.75.46,1.4,1.07,1.93,1.83.53.75.79,1.68.79,2.78s-.25,1.96-.75,2.76c-.5.8-1.23,1.42-2.2,1.87-.96.45-2.11.67-3.44.67-.86,0-1.72-.12-2.58-.36Z"/>
    <path d="M276.58,142.56c.64-.02,1.09-.17,1.37-.45.27-.28.43-.61.46-.99.04-.38.05-1.05.05-1.99v-12.05c0-.78.03-1.45.08-2.01l-1.97.11v-1.23h13.14l.14,4.88h-.9c0-1.52-.32-2.57-.97-3.12-.65-.56-1.55-.82-2.72-.78l-2.35.06c-.66.02-1.13.14-1.42.38-.29.23-.47.56-.55.98-.07.42-.11,1.07-.11,1.97v4.46l5.13.03-.19-2.4h1.2v5.86h-.9c0-.69-.08-1.21-.25-1.58s-.41-.6-.75-.73c-.34-.12-.81-.18-1.41-.18l-.85.03-1.99.08v6.39c0,.97-.03,1.69-.08,2.18l5.22-.08c1.27-.02,2.25-.35,2.92-.99s1.01-1.75,1.01-3.33h.93l-.16,5.44h-14.09v-.92Z"/>
  </g>
  <g clip-path="url(#clippath)">
    <g clip-path="url(#clippath-1)">
      <path d="M164.88,55.41s-.03.03-.03.04c0-.01.02-.03.03-.04"/>
      <path d="M178.75,22.21c.41-1.15,1.67-4.51,1.93-4.51.5,0,.85-.29,1.12-.68.29-.41.36-.87.35-1.36-.01-.63.01-1.26.3-1.84.15-.3.32-.45.56-.07.15.24.39.37.63.48,1.36.63,2.78.51,4.19.24.63-.12,1.13-.52,1.61-.94.15-.13.27-.29.17-.49-.12-.24-.32-.14-.49-.07-.11.04-.23.17-.37-.05.3-.27.61-.54.89-.84.15-.16.35-.38.12-.59-.18-.17-.38-.03-.56.1-.23.17-.47.31-.71.47-.13.08-.29.19-.41.06-.16-.17.07-.26.16-.36.32-.36.55-.77.77-1.19.07-.14.09-.29-.06-.41-.18-.15-.31-.03-.45.08-.17.14-.34.28-.5.43-.67.64-1.44,1.13-2.33,1.42-.13.04-.27.14-.37.02-.12-.15.06-.24.15-.31.8-.63,1.34-1.49,1.95-2.3.23-.31.43-.55.22-1.04-.29-.67-.63-.85-1.25-.39-.46.34-.69.85-1.01,1.3-.21.29-.39.62-.87.85.41-.78.9-1.35,1.14-2.05.06-.18.27-.36.07-.57-.22-.23-.37-.02-.53.1-.17.12-.38.18-.52.04-.13-.13.07-.26.14-.39.08-.15.21-.29.07-.46-.14-.18-.34-.16-.52-.09-.42.17-.83.34-1.16.7-.36.4-.69.83-1.01,1.27-.17-.09-.14-.23-.11-.32.15-.47.25-.96.52-1.38.14-.2.33-.47.06-.65-.32-.22-.45.12-.6.33-.51.69-.92,1.44-1.11,2.29-.08.34-.21.41-.5.18-.41-.33-.79-.71-.91-1.21-.17-.71-.47-1.06-1.2-.7-.36.18-.54-.14-.81-.19-.42-.07-.16.56-.59.56-.34,0-.29.25-.2.5.39,1.16,1.11,1.95,2.36,2.19.01,0,.02.06.04.17-.57.09-1.03-.11-1.48-.4-.62-.41-.99-1.04-1.36-1.66-.11-.19-.21-.39-.47-.33-.26.06-.2.27-.17.47.01.08,0,.22-.06.26-.32.24-.18.5-.07.76.18.4.37.79.6,1.27-.16-.08-.21-.1-.25-.13-.26-.15-.43-.73-.8-.38-.33.32.11.63.3.9.85,1.19,2.27,1.35,3.48,1.89.35.16.79.06,1.16-.15.13-.07.28-.12.42-.17.11-.04.22-.08.32.02.1.1.03.21-.03.31-.3.52-.57,1.07-1.02,1.5-.79.77-.83,1.5-.19,2.39.15.21-1.31,4.83-1.4,5.12,0,0,0,0,0,.01h-47.1v80.07h80.07V22.21h-32.28ZM209.58,100.84h-77.18V23.66h45.21c-.28.94-.54,1.82-.84,2.9h-41.47v71.38h27.97c2.44,0,4.56-2.11,5.13-4.48.19-.78.32-1.49.33-1.93,0-.3.11-.4.4-.39.52,0,1.04.03,1.56.08.07.42.14.84.21,1.27.49,2.89,2.99,5.45,5.93,5.45h29.85V26.56h-29.2c.31-1.09.56-1.93.83-2.9h31.26v77.18ZM177.02,92.17c-1.33-.92-2.79-1.33-4.42-.94-.21.05-.42.05-.63,0-.21-.06-.42-.1-.64-.14-.02-.12-.04-.24-.05-.36.31-.56.72-1.3,1.14-2.07.06,0,.13,0,.21.02,1.52.45,2.93.19,4.24-.68.23-.15.46-.35.41-.64-.06-.31-.37-.38-.63-.41-1.11-.12-2.21,0-3.15.6-.25.16-.49.32-.74.48.46-.84.91-1.65,1.23-2.2.38-.66.74-1.33,1.08-2.02.58-.17,1.14-.51,1.77-.43.42.05.84.08,1.26.03,1.21-.13,2.24-.64,3.12-1.42.21-.19.44-.45.3-.78-.13-.32-.45-.36-.76-.34-1.7.11-3.16.69-4.2,2.1-.07.09-.13.18-.25.21-.37.08-.72.19-1.08.31.25-.53.5-1.05.74-1.59.22-.49.43-.98.64-1.48.45-.5.77-1.1.98-1.76.17-.55.32-1.11.31-1.69.15-.44.3-.89.44-1.34l1.21-4.23c.1-.41.19-.81.31-1.22.3-1.05.48-2.13.73-3.19.28-1.21.48-2.44.7-3.66.25-1.39.46-2.79.65-4.19.25-1.84.47-3.69.61-5.54.01-.15.08-.21.19-.28.46-.29.58-.64.35-1.14-.13-.29-.15-.59-.2-.88,0-.06-.02-.12.05-.15.06-.03.11.01.15.05.06.05.12.1.16.16.13.16.32.29.51.28.66-.03,1.35.16,1.96-.24.14-.09.4-.16.31-.37-.11-.23-.29,0-.44.03-.03,0-.05,0-.14.01.2-.18.36-.33.51-.48.1-.1.22-.2.11-.37-.02-.03,0-.09.02-.13.05-.08.12-.17,0-.25-.11-.08-.19,0-.28.07-.29.22-.57.44-.94.52-.26.05-.51.06-.76-.09.03-.04.04-.07.05-.07.62.12,1.1-.12,1.5-.58.08-.1.15-.21,0-.27-.2-.08.04-.32-.17-.37-.13-.03-.28.09-.41-.06-.27-.3-.47-.19-.68.11-.15.21-.4.32-.65.39-.17.05-.23,0-.2-.17.07-.43.01-.85-.1-1.27-.03-.12-.03-.31-.22-.26-.16.04-.12.19-.09.31.05.25,0,.49,0,.74,0,.05-.01.12-.11.13-.07-.26-.14-.52-.24-.77-.08-.23-.25-.38-.41-.54-.07-.07-.16-.11-.26-.06-.1.05-.06.14-.05.23,0,.07.08.17,0,.21-.09.04-.18-.03-.24-.11-.06-.08-.08-.21-.23-.14-.13.06-.07.18-.07.28-.02.37.11.72.15,1.16-.18-.2-.21-.38-.25-.56-.07-.27-.08-.55-.23-.79-.2-.33-.39-.31-.65-.05-.19.19-.14.34-.09.52.13.48.23.98.48,1.43.03.05.1.12.01.17-.07.04-.12-.04-.17-.08-.37-.31-.64-.69-.84-1.13-.04-.1-.1-.19-.15-.28-.04-.07-.08-.13-.18-.09-.09.03-.11.1-.1.18.02.24.05.47.14.7.02.06.11.15,0,.2-.08.04-.14-.05-.18-.11-.08-.11-.17-.23-.25-.35-.06-.09-.13-.19-.24-.15-.15.06-.09.2-.05.3.08.19.17.37.26.55-.1.07-.13,0-.18-.05-.07-.06-.14-.15-.24-.06-.09.08-.06.17-.01.26.15.28.3.56.58.73.61.39,1.24.7,1.99.66.13,0,.27-.02.38-.11.18-.13.23-.03.25.14.03.32-.08.62-.2.91-.09.22-.15.45-.09.69.06.23.16.43.4.52.14.06.17.15.16.29-.16,1.44-.28,2.89-.47,4.33-.2,1.55-.43,3.1-.69,4.65-.26,1.52-.55,3.04-.87,4.56-.38,1.79-.79,3.58-1.28,5.35-.35,1.25-.72,2.48-1.12,3.71-.05-.1-.13-.18-.25-.22-.32-.12-.52.13-.74.31-.02.02-.04.04-.06.06-1.01,1.31-1.56,2.74-1.23,4.42.03.18.03.33-.08.48-.76,1.12-1.52,2.25-2.28,3.36-.21.3-.46.58-.7.89-.13-.23-.05-.41-.04-.59.03-.62.08-1.25-.21-1.83-.18-.38-.44-.4-.73-.11-.16.16-.28.36-.36.57-.4,1.09-.52,2.2-.14,3.32.09.27.03.45-.13.63-.02-.17-.04-.32-.06-.46-.23-1.87-.41-3.74-.53-5.61.54-.41,1-.91,1.36-1.51.15-.25.24-.55.06-.8-.17-.23-.45-.16-.71-.12-.3.05-.57.15-.83.27-.01-.29-.03-.58-.04-.87-.02-.54-.03-1.09-.04-1.63.25-.2.5-.4.76-.59.09-.07.19-.12.31-.1,1.37.18,2.56-.27,3.65-1.05.41-.29.82-.6,1.01-1.11.12-.32,0-.5-.28-.59-.14-.05-.31-.07-.46-.05-1.27.14-2.39.62-3.33,1.51-.36.34-.56.83-.95,1.12-.24.18-.48.38-.72.57-.02-1.24-.01-2.48.01-3.72.22-.55.44-1.1.68-1.65.1-.24.26-.29.5-.29,1.14-.02,2.12-.44,2.94-1.22.24-.23.66-.48.43-.86-.22-.36-.67-.22-1.03-.15-.9.16-1.68.57-2.33,1.21-.07.07-.13.17-.24.12-.09-.05-.05-.15-.04-.23.13-.63.04-1.25-.1-1.85-.11-.48-.29-.93-.53-1.36.06-.86.13-1.72.2-2.58.08-.19.16-.36.24-.5.94-1.56,2-3.04,3.01-4.56,1.19-1.8,2.09-3.69,2.48-5.83.44-2.42.55-4.86.79-7.3.21-2.19.73-4.28,2.03-6.09.76-1.06,1.58-2.08,2.36-3.14.58-.79,1.15-1.59,1.48-2.62-.44.28-.48.72-.7,1.04-.76,1.12-1.68,2.1-2.55,3.13-1.53,1.79-2.67,3.75-3.1,6.12-.45,2.49-.51,5.02-.87,7.52-.25,1.72-.63,3.41-1.41,4.97-.89,1.76-2,3.4-3.02,5.09-.22.36-.42.73-.63,1.11.08-.92.17-1.83.26-2.75.38-3.65.93-7.27,1.54-10.89.52-3.05,1.09-6.09,1.74-9.12.65-3.06,1.37-6.11,2.14-9.15.25-.99.52-1.98.8-2.97h28.13v68.49h-27.91c-2.97,0-5.5-2.18-5.94-5.12v-.06s0,0,0,0c.3.06.64.06.88.34,1.18,1.33,2.71,1.76,4.43,1.66.28-.02.59-.08.69-.4.11-.34-.11-.58-.36-.75M174.59,83.97c-.2.38-.39.76-.6,1.13-.28.52-1.08,1.97-1.8,3.29-.38.24-.76.48-1.15.7-.06-.44-.12-.84-.17-1.2.82-.87,1.55-1.82,2.24-2.8.39-.57.86-.93,1.48-1.12M174.2,83.56c.35-.51.69-1.03,1.05-1.54.25-.35.4-.76.75-1.04-.03.08-.06.15-.1.23-.36.83-.75,1.64-1.16,2.44-.12.05-.25.1-.37.14-.08.03-.17.07-.23-.01-.06-.08,0-.16.05-.23M171.93,88.86c-.28.51-.53.97-.73,1.32-.04-.29-.08-.58-.12-.85.28-.17.56-.33.85-.48M168.47,82.73c-.02-.24.08-.37.3-.43.29-.08.55-.22.81-.37.13,2.1.32,4.19.63,6.28-.36.36-.73.71-1.13,1.04-.08.06-.15.15-.26.11-.12-.04-.09-.16-.09-.26-.03-2.12-.12-4.24-.26-6.36M168.27,78.88c-.03-.25.04-.43.21-.61.29-.31.59-.6.91-.88.02.76.04,1.53.08,2.29,0,0,0,.01,0,.02-.26.17-.52.36-.77.55-.08.06-.15.16-.25.12-.11-.04-.08-.17-.08-.26-.02-.41-.03-.82-.08-1.23M167.72,82.53c.37,0,.27.26.27.45.08,1.41.14,2.82.21,4.24,0,.13,0,.25,0,.38-.36-.49-.35-1.06-.48-1.6-.23-.98-.42-1.96-.33-2.98.02-.22-.03-.47.32-.48M167.76,80.56c.12.24.2.47.02.7-.02.02-.11.02-.11,0-.08-.25-.05-.48.09-.71M168.18,76.78c-.17-.02-.67-.27-.68-.39-.12-1.28-.23-2.56-.34-3.84-.02-.18-.15-.42,0-.52.18-.12.28.16.43.24.05.03.09.07.14.1.33.22.4.19.45-.2.16-1.35-.28-2.51-1.15-3.51-.22-.25-.76-.52-.87-.32-.21.36-.17.73-.11,1.11.08.58.39,1.09.45,1.67.16,1.43.25,2.87.44,4.3.25,1.87.78,3.76.33,5.61-.34,1.39-.38,2.83-.08,4.25.05.26.2.5.11.86-.35-.41-.47-.87-.7-1.27-.69-1.17-1.33-2.36-2.11-3.48-.16-.22-.16-.4.1-.6,1.25-.99,1.7-2.38,1.85-3.9.02-.22-.04-.42-.11-.62-.11-.31-.33-.37-.61-.26-.17.07-.31.19-.43.34-.88,1.04-1.38,2.22-1.43,3.59,0,.09.05.22-.08.25-.14.03-.14-.11-.19-.19-.77-1.19-1.15-2.54-1.58-3.87-.23-.7-.15-1.4.06-2.08.21-.69.22-.69.9-.54.1.02.19.05.29.07,1.03.19,2.02.1,2.96-.38.21-.11.45-.24.41-.53-.04-.28-.31-.35-.53-.42-.69-.22-1.39-.2-2.1-.06-.11.02-.26.13-.34-.02-.07-.12.06-.2.13-.29.44-.64.7-1.35.76-2.13.02-.24.01-.51-.24-.63-.23-.11-.43.05-.61.2-.69.59-1.11,1.35-1.35,2.21-.24.83-.05,1.75-.51,2.54-.06.1.02.3-.18.27-.14-.02-.14-.19-.17-.32-.12-.62-.25-1.25-.36-1.87-.2-1.13-.39-2.26-.58-3.38-.05-.32-.05-.63.33-.77,1.49-.57,2.32-1.72,2.79-3.19.11-.33.26-.75-.09-.98-.36-.24-.7.05-.98.28-.61.49-1.13,1.07-1.46,1.79-.05.1-.09.24-.22.22-.15-.02-.1-.18-.11-.28-.1-.62-.29-1.21-.6-1.75-.14-.24-.33-.51-.65-.45-.3.05-.4.34-.46.61-.32,1.49-.05,2.86.84,4.1.09.13.22.22.25.39.21,1.44.4,2.88.71,4.31.02.08.07.17-.04.22-.08.03-.13-.03-.18-.08-.53-.55-1.12-1.04-1.73-1.49-.11-.08-.24-.25-.28-.38-.54-1.46-1.61-2.4-3.01-3.02-.27-.12-.55-.22-.85-.22-.41,0-.6.26-.47.65.05.15.11.29.19.42.91,1.37,2.12,2.29,3.79,2.52.1.01.21.02.28.08,1.12.94,2.53,1.61,2.79,3.33.15.99.56,1.95.85,2.93.03.09.12.19.03.27-.11.11-.2-.01-.3-.06-.73-.37-1.51-.63-2.3-.84-.86-.23-1.66-.55-2.43-1.02-1.11-.68-2.38-.75-3.65-.49-.27.06-.59.11-.65.45-.07.38.26.53.5.72.09.07.2.11.3.16.53.3,1.12.39,1.7.51.09.02.22-.01.25.11.02.1-.07.17-.15.24-.17.14-.37.27-.51.45-.19.23-.46.51-.27.82.19.3.55.19.82.11,1.06-.31,1.97-.85,2.51-1.87.12-.22.27-.32.51-.24.7.22,1.43.33,2.11.63.09.04.25,0,.25.17,0,.11-.11.15-.2.2-.55.29-.98.71-1.3,1.23-.12.19-.28.36-.47.48-1.46.92-2.37,2.19-2.52,3.93-.05.58.3.8.81.52.56-.31.94-.8,1.3-1.3.63-.87,1.01-1.84.99-2.92,0-.39.09-.7.34-.95.3-.3.61-.59.98-.81.58-.33,1.49-.11,1.76.51.55,1.24,1.41,2.28,2.1,3.42,1.03,1.69,2.02,3.4,2.81,5.21.04.1.14.22.04.31-.12.11-.2-.05-.28-.11-.73-.61-1.54-1.09-2.4-1.48-.22-.1-.42-.22-.6-.38-1.31-1.12-2.84-1.37-4.49-1.12-.3.04-.64.14-.71.51-.07.35.25.49.47.68.08.07.18.13.28.17,1.39.6,2.79.87,4.26.27.19-.08.38-.1.57,0,.93.49,1.86.96,2.65,1.66.34.3.58.64.61,1.12.04.66.14,1.32.15,1.99,0,.02,0,.04,0,.05,0,2.89-2.4,5.21-5.28,5.21h-26.02V28.01h39.65c-.44,1.65-.87,3.3-1.27,4.95-.68,2.75-1.31,5.5-1.87,8.27-.49,2.44-1.02,4.87-1.39,7.33-.33,2.16-.78,4.3-1,6.47-.08.83-.22,1.66-.33,2.49l-.65,6.62c-.69-.83-2.61-3.19-3.74-5.24-.05-.09-.1-.19-.15-.29.22-1.39,1.09-2.51,1.63-3.76.15-.36.35-.71-.12-.87-.43-.15-.51.3-.55.58-.24,1.88-.94,2.77-1.17,3.62-.26-.43-.8-2.02-.97-2.58-.24-.99-.4-1.83,1.57-2.96.3-.17.71-.06.79-.52.02-.12-.09-.34-.19-.37-.37-.12-.63.13-.87.4-.15.17-.11-.34.23-.5.23-.11.28-.36.22-.62-.05-.22-.18-.35-.39-.34-.27,0-.4.22-.46.45-.08.32-.14.65-.2.97-.28-.4-.19-.88-.19-1.35,0-.3-.14-.56-.49-.49-.29.06-.45.27-.44.61.02.38.25.61.44.9.39.58.09,1.19-.14,1.81-.28.75-.91-1.29-1.44-3.51.35-.32.5-.82.82-1.16.45-.47.93-.98,1.49-.17.22.31.48.5.87.32.21-.1.28-.28.22-.49-.12-.44-.47-.45-.82-.45-.13,0-.32.08-.29-.27.2-.03.41-.04.62-.08.33-.07.56-.26.61-.63.03-.17-.05-.32-.21-.37-.29-.09-.53.07-.71.29-.3.38-.59.74-1.11.75q.46-1.4,1.64-1.93c.3-.13.58-.29.55-.68,0-.13-.14-.31-.25-.34-.31-.08-.48.15-.64.4-.1.17-.12.52-.48.31.02-.12.01-.25.07-.34.17-.3.49-.58.2-.96-.07-.09-.29-.16-.4-.11-.47.2-.18.58-.21.91-.12,1.2-.98,2.1-1.3,3.25-.18-.42-.24-.8-.29-1.19-.05-.35-.15-.69-.56-.48-.33.16-.41.67-.2.82,1.02.75.67,1.54.3,2.35-.43-1.85-.79-3.75-.83-4.26-.03-.42-.06-.87-.09-1.35.2-.28.34-.65.46-1.06.05-.19.17-.37.27-.54.52-.85.93-1.92,2.17-1.06.22.15.54.03.7-.24.07-.11.07-.33,0-.43-.17-.3-.44-.2-.71-.1-.23.09-1.27.17-1.18-.13.15-.47.19-.67.36-1,.09-.17.25-.33.3-.51.07-.24.03-.54-.22-.59-.28-.06-.42.25-.4.47.13,1.5-.78,2.6-1.42,3.79-.14.27-.27.48-.38.65-.11-1.93-.21-4.11-.28-5.78.14-.06.27-.38.39-.79.37-.02.64-.33.96-.47.22-.09.36-.31.33-.58-.03-.22-.17-.36-.37-.37-.28-.02-.42.21-.49.43-.1.3-.17.61-.38.83.19-.69.35-1.57.52-1.99.11-.27.09-.62-.25-.67-.39-.05-.6.33-.48.62.36.9.05,1.72-.23,2.59-.05-1.32-.12-1.68-.13-2.24,0-.22-.06-.44-.13-.65.35-.61,0-1.37.27-2.01.09-.2.11-.48-.1-.65-.07-.05-.22-.06-.3-.02-.29.16-.32.48-.22.73.18.46.14.93.12,1.4-.18-.33-.36-.61-.42-.75-.14-.32-.25-.59-.62-.55-.12.01-.29.15-.33.27-.13.36.03.66.33.77.72.27.96.84,1.02,1.48.11,1.25.07,2.37.19,5.03-.34-.32-.95-.91-1.51-1.48.08-.41.03-.84.25-1.24.13-.24.09-.56-.17-.74-.13-.09-.27-.08-.41.03-.27.21-.24.51-.17.76.09.34.2.67.31.99-.51-.52-.95-1-1.03-1.18-.13-.29-.25-.62-.65-.49-.12.04-.28.21-.28.32-.04.47.32.52.65.65.52.21,1.07.42,1.31,1.16-.25-.04-.41-.04-.54-.1-.38-.16-.75-.46-1.13-.03-.07.08-.08.34-.01.44.3.5.72.24,1.11.11.46-.15.82-.18,1.17.34.27.41.73.68,1.14.99.05,1.09.11,2.2.17,3.23-.32.15-.68-.06-1.32-.57-.54-.43-.98.23-1.46-.07-.19-.12-.52.07-.62.39-.07.22,0,.4.17.52.26.2.49.06.72-.12.81-.65,1.5-.15,1.85.45-.28-.19-.86-.07-1.17-.01-.28.05-.46.29-.51.58-.05.27.1.47.33.53.28.07.51-.05.67-.32.15-.24.14-.67.5-.66.38.02.66.05.89-.06.02.37.05.71.07,1.04.07,1.04.31,2.41.63,3.89-.66-.34-1.01-.99-1.1-1.9-.02-.23-.14-.51-.41-.45-.15.03-.34.09-.44.25-.15.24-.02.6.14.78.23.25.76.21.69.84-.64.07-1.43-.18-1.66-.52-.11-.16-.13-.46-.14-.66-.02-.35.17-.68-.23-.8-.25-.08-.44.11-.53.35-.17.42.06.79.26.91.14.09.45.09.52.26.06.13-.48.17-.77-.04-.22-.16-.49-.18-.74.03-.18.15-.18.34-.1.54.15.37.43.39.75.28.47-.15.94-.38,1.4.04-.1.07-.19.16-.28.2-.32.15-.65.31-.65.74,0,.11.16.27.28.31.45.16.73-.13.9-.52.23-.53.64-.67,1.12-.66.49.01.78.4,1.14.66.44,1.86,1.01,3.83,1.6,5.55-.02,0-.04-.01-.06-.03-.8-.42-1.55-.83-1.46-1.99.02-.27-.05-.59-.4-.6-.13,0-.29.11-.38.23-.2.26-.12.52.04.77.16.26.69.24.47.87-.87-.36-1.09-1.1-1.17-1.96-.03-.3-.17-.54-.46-.61-.21-.05-.36.11-.46.29-.18.32-.14.6.07.88.22.29.79.18.75.76-.62.17-1.12-.16-1.46-.57-.33-.42-.31-.91-.91-.79-.29.06-.46.34-.37.63.24.77.84-.02,1.19.22.31.21-.09.47-.5.45-.26-.01-.54.1-.64.42-.07.22.01.4.18.51.27.18.53.07.73-.14.58-.61,1.18-.43,1.79-.17.08.03.15.08.21.14-.41.04-.75.1-.89.6-.07.25.06.51.32.51.53,0,.75-.35.92-.92.04.01.08.03.13.03.98.02,1.8.37,2.52.94.41,1.12.81,2.1,1.2,2.82-1,.01-2.22-.62-2.64-.91-.44-.3-.01-.94-.56-1.19-.17-.08-.39.07-.43.28-.15.72.62.56.81,1.04.14.35-.68.09-1.03.05-.29-.03-.55.03-.69.3-.06.12-.06.33,0,.44.17.31.44.25.69.1.38-.23.75-.4,1.16-.12-.06.07-.1.14-.17.18-.28.21-.62.38-.56.83.03.23.19.35.39.35.43,0,.59-.35.69-.7.26-.89.86-.66,1.39-.49.46.15.89.41,1.42.68,1.45,2.39,3.62,4.89,3.64,4.92l.02-.02-.09.88c-.17-.2-.4-.35-.68-.28-.29.08-.37.35-.39.6-.08,1.26.18,2.4.83,3.39-.07,1.39-.11,2.79-.13,4.18-.37.97-.71,1.96-.98,2.96-.03.13-.07.29-.21.28M170.23,70.23c.3.29.28.47.15.78-.1.25-.2.49-.31.74.02-.54.04-1.08.06-1.63.03.03.06.07.09.1M169.38,77.08c-.24.2-.47.4-.7.62-.07.06-.13.16-.26.08.02-.12.03-.25.06-.37.28-.91.57-1.81.88-2.7,0,.79,0,1.58.02,2.38M169.23,89.42c.36-.29.69-.59,1.02-.9.05.31.1.63.15.95-.46.29-.9.61-1.31.96-.08.07-.17.18-.29.12-.12-.07.15-.91.43-1.14M169.34,90.53c.36-.27.73-.53,1.11-.78.07.41.13.82.2,1.24-.39-.04-.79-.07-1.19-.09-.1,0-.25.05-.29-.1-.04-.13.08-.21.17-.27"/>
    </g>
  </g>
</svg>