<?xml version="1.0" encoding="UTF-8"?>
<svg id="Layer_1" data-name="Layer 1" xmlns="http://www.w3.org/2000/svg" viewBox="0 0 704.16 350.3">
  <g>
    <path d="M563.53,266.98c-13.19,0-21.96-10.11-21.96-24.88s9.56-24.09,25.59-24.09c13.9,0,22.12,8.22,22.12,21.41,0,16.9-10.35,27.57-25.75,27.57ZM564.89,264.67c6.45,0,12.74-3.89,14.66-17.66,2.24-16.12-2.92-26.73-13.27-26.73-6.76,0-12.96,2.58-14.88,16.35-2.34,16.82,2.35,28.04,13.48,28.04Z" fill="#2d4c43"/>
    <path d="M177.54,240.43c0,15.01-9.48,25.75-24.8,25.75h-23.78v-1.34l3.79-.79c3.71-.71,3.71-1.5,3.71-20.3,0-22.04-.16-22.43-3.4-22.99l-4.19-.63v-1.34h25.44c15.72,0,23.22,8.37,23.22,21.64ZM144.69,263.28c20.74.39,24.32-4.83,24.32-19.21,0-15.25-6.17-22.31-20.62-22.39-1.11,0-2.59.03-3.7.03v41.57Z" fill="#2d4c43"/>
    <path d="M21.67,266.19H6.2v-1.34l1.03-.4c2.92-1.03,7.43-12.96,23.22-47.4h1.58c2.45,5.69,7.74,16.9,10.74,23.54,7.11,15.64,9.95,22.36,12.72,23.78l1.11.47v1.34h-22.04v-1.34l4.5-.4c2.45-.24,3.63-.71,3.63-2.37,0-1.5-2.92-8.61-5.61-14.69-2.69-.16-5.37-.16-8.22-.16-3.16,0-6.52-.03-9.29.13-2.55,6.01-4.9,11.15-4.9,13.2,0,2.5,1.54,3.16,4.58,3.76.71.14,2.41.52,2.41.52v1.34ZM36.45,245.96c-.08-.32-.24-.63-.4-.95-2.69-5.92-5.62-13.99-7.51-17.78-2.92,6.64-5.66,12.61-8.29,18.65,2.84.16,5.69.16,8.61.16,2.69,0,5.13,0,7.58-.08Z" fill="#2d4c43"/>
    <path d="M115.21,240.43c0,15.01-9.48,25.75-24.8,25.75h-23.78v-1.34l3.79-.79c3.71-.71,3.71-1.5,3.71-20.3,0-22.04-.16-22.43-3.4-22.99l-4.19-.63v-1.34h25.44c15.72,0,23.22,8.37,23.22,21.64ZM82.36,263.28c20.74.39,24.32-4.83,24.32-19.21,0-15.25-6.17-22.31-20.62-22.39-1.11,0-2.59.03-3.7.03v41.57Z" fill="#2d4c43"/>
    <path d="M195.4,220.76l-3.19-.63v-1.34h20.99v1.34l-3.66.71c-2.61.47-2.84,1.42-2.84,19.99,0,22.28.16,22.67,3.55,23.3l3.03.71v1.34h-20.99v-1.34l3.11-.79c3.4-.63,3.4-1.42,3.4-20.22,0-22.12-.16-22.51-3.4-23.07Z" fill="#2d4c43"/>
    <path d="M259.48,220.05c0,5.11-.01,10.11-.09,16.27h-1.19l-1.19-5.29c-1.74-7.5-6.73-10.9-12.42-10.9-4.43,0-8.6,4.59-8.6,7.99,0,5.29,2.45,7.25,11.93,10.41,11.06,3.71,14.69,7.27,14.69,13.51,0,7.9-7.11,14.93-19.99,14.93-6.08,0-10.75-1.66-13.43-3.24,0-4.31.16-9.87.24-15.87h1.19l1.03,4.9c1.82,7.9,6.07,10.5,16.82,10.5,4.13,0,9.7-3.43,9.7-7.09,0-4.9-2.74-6.73-15.22-11-9.8-3.08-13.19-7.27-13.19-12.8,0-7.82,7.82-14.3,17.85-14.3,6,0,9.18,1.26,11.86,1.98Z" fill="#2d4c43"/>
    <path d="M299.28,266.98c-13.19,0-21.96-10.11-21.96-24.88s9.56-24.09,25.59-24.09c13.9,0,22.12,8.22,22.12,21.41,0,16.9-10.35,27.57-25.75,27.57ZM300.64,264.67c6.45,0,12.74-3.89,14.66-17.66,2.24-16.12-2.92-26.73-13.27-26.73-6.76,0-12.96,2.58-14.88,16.35-2.34,16.82,2.35,28.04,13.48,28.04Z" fill="#2d4c43"/>
    <path d="M346.46,225.93c0,35.02-.76,37.8,10.73,38.91,0,.44-.08,1.34-.08,1.34h-21.57v-1.34l3.55-.63c4.81-1.67,3.62-3.71,3.94-41.94-1.19-.87-2.12-1.27-3.86-1.58l-3.79-.55v-1.34h17.77c5.13,8.53,13.61,21.46,23.72,33.78,0-12.53.06-20.6.06-24.96,0-5.89-4.6-6.9-9.03-7.47.02-.54.08-1.34.08-1.34h17.01v1.34l-2.29.47c-.88.23-3.04.35-3.04,4.99,0,13.34-.05,39.89.01,41.46l-2.58.08c-6.71-9.32-29.51-39.77-30.64-41.2Z" fill="#2d4c43"/>
    <path d="M445.03,266.98c-13.98,0-21.57-10.11-21.57-24.17,0-16.04,13.11-24.8,26.94-24.8,8.29,0,13.51,2.45,15.56,3.79-.39,4.9-.79,9.88-1.11,15.48h-1.26l-1.58-6.4c-2.29-6.56-7.58-10.03-16.98-10.03-5.53,0-12.72,4.5-12.72,16.35,0,18.8,6.64,27.49,17.54,27.49,6.16,0,9.08-2.37,9.08-7.58,0-10.98-.32-11.3-4.42-11.85l-5.4-.87.08-1.18c11.61.24,16.06.24,22.86,0v1.18l-2.69.63c-2.69.71-2.61,1.42-2.45,15.01-4.19,2.61-12.01,6.95-21.88,6.95Z" fill="#2d4c43"/>
    <path d="M508.39,266.19h-24.72v-1.34l4.03-.79c3.24-.63,3.32-1.42,3.32-20.3,0-22.28-.24-22.43-3.71-22.99l-3.87-.63v-1.34h27.49c10.03,0,14.46,3.95,14.46,9.56s-4.34,11.38-11.93,13.43c6.08,12.24,12.48,20.7,15.25,22.2l2.21.87v1.34h-11.69c-2.21-3.98-6.68-11.95-13.03-23.62-2.45,0-5.13-.02-7.35-.02,0,21.57.24,20.87,4.27,21.51l5.29.79v1.34ZM517,231.51c0-7.19-3.87-11.3-12.64-11.3-1.66,0-3.32.16-4.9.4-.32,1.82-.63,6.48-.63,20.22h9c6.64,0,9.16-3.08,9.16-9.32Z" fill="#2d4c43"/>
    <path d="M623.18,267.92c-2.61-5.69-7.9-17.14-10.9-23.7-8.53-18.88-10.03-22.2-12.64-23.54l-1.11-.55v-1.34h19.96v1.34s-5.98-.29-5.98,2.69c0,1.82,3.87,10.9,6.79,17.46,2.69,5.85,5.12,11.56,7.02,15.35,7.06-14.98,12.26-25.6,12.26-30.26,0-5.26-8.43-5.24-8.43-5.24v-1.34h19.01v1.34l-.95.24c-3.08,1.03-7.58,13.03-23.78,47.55h-1.26Z" fill="#2d4c43"/>
    <path d="M696.54,266.19h-37.72v-1.34l3.6-.79c2.92-.63,3-1.34,3-20.54,0-21.96-.5-22.42-3.82-22.98l-2.78-.41v-1.34h37.17c.24,5.21.71,10.77,1.42,17.01h-1.26l-2.45-6.5c-2.69-6.87-5.22-6.85-20.43-7.83,0,2.27-.03,4.28-.03,19.69,9.87-.16,11.22-1.04,12.24-5.46l.87-4.06h.87c.39,5.89.96,15.35,1.34,21.22h-.87l-1.42-3.98c-1.5-4.98-3.24-5.54-13.03-5.86,0,15.8-.02,17.36-.02,20.42,15.13-.85,18.51-.66,20.96-7.61l2.61-7.37h1.18c-.63,6.48-1.18,12.27-1.42,17.72Z" fill="#2d4c43"/>
  </g>
  <g>
    <path d="M204.13,323.77l-2.75,8.29h-3.13l8.43-23.46h3.94l8.09,23.46h-3.16l-2.79-8.29h-8.64ZM211.98,321.39l-3.4-10.47-3.64,10.47h7.04Z" fill="#2d4c43"/>
    <path d="M245.07,323.4c0,.75,0,1.43-.07,2.11-.34,3.91-2.99,7.04-8.74,7.04s-8.4-3.13-8.74-7.04c-.07-.68-.07-1.36-.07-2.11v-14.79h2.92v14.52c0,.75,0,1.46.07,2.07.27,2.96,2.21,5.03,5.81,5.03s5.54-2.07,5.81-5.03c.07-.61.07-1.33.07-2.07v-14.52h2.92v14.79Z" fill="#2d4c43"/>
    <path d="M272.1,315.1h-3.13c-.27-2.96-2.01-4.66-4.96-4.66-2.48,0-4.45,1.16-4.45,3.6s1.46,3.64,5.03,4.45c5.17,1.19,7.75,3.3,7.75,7.27s-3.54,6.77-8.06,6.77c-5.17,0-8.43-2.62-8.94-7.14h3.13c.68,3.09,2.82,4.83,5.88,4.83,2.69,0,4.86-1.46,4.86-3.91,0-2.86-1.63-4.15-5.75-5.1-4.15-.95-7.04-2.62-7.04-6.49s3.5-6.6,7.82-6.6c4.86,0,7.41,2.96,7.85,6.97Z" fill="#2d4c43"/>
    <path d="M292.02,310.99v21.08h-2.92v-21.08h-8.36v-2.38h19.65v2.38h-8.36Z" fill="#2d4c43"/>
    <path d="M309.9,332.06v-23.46h2.92v23.46h-2.92Z" fill="#2d4c43"/>
    <path d="M338.87,332.06l-11.05-20.6c.07,2.75.1,6.12.1,8.87v11.73h-2.92v-23.46h4.49l11.05,20.6c-.07-2.75-.1-6.12-.1-8.87v-11.73h2.86l.07,23.46h-4.49Z" fill="#2d4c43"/>
    <path d="M353.83,336.14h-2.75l2.65-7.48h3.16v.34l-3.06,7.14Z" fill="#2d4c43"/>
    <path d="M391.64,310.99v21.08h-2.92v-21.08h-8.36v-2.38h19.65v2.38h-8.36Z" fill="#2d4c43"/>
    <path d="M425.13,332.06h-15.6v-23.46h15.26v2.38h-12.34v8.16h11.32v2.38h-11.32v8.16h12.68v2.38Z" fill="#2d4c43"/>
    <path d="M443.08,322.14l-6.66,9.93h-3.37l8.36-11.83-7.75-11.63h3.33l6.22,9.59,6.46-9.59h3.37l-8.16,11.52,8.5,11.93h-3.43l-6.87-9.93Z" fill="#2d4c43"/>
    <path d="M466.44,323.77l-2.75,8.29h-3.13l8.43-23.46h3.94l8.09,23.46h-3.16l-2.79-8.29h-8.64ZM474.29,321.39l-3.4-10.47-3.64,10.47h7.04Z" fill="#2d4c43"/>
    <path d="M505.67,315.1h-3.13c-.27-2.96-2.01-4.66-4.96-4.66-2.48,0-4.45,1.16-4.45,3.6s1.46,3.64,5.03,4.45c5.17,1.19,7.75,3.3,7.75,7.27s-3.54,6.77-8.06,6.77c-5.17,0-8.43-2.62-8.94-7.14h3.13c.68,3.09,2.82,4.83,5.88,4.83,2.69,0,4.86-1.46,4.86-3.91,0-2.86-1.63-4.15-5.75-5.1-4.15-.95-7.04-2.62-7.04-6.49s3.5-6.6,7.82-6.6c4.86,0,7.41,2.96,7.85,6.97Z" fill="#2d4c43"/>
  </g>
  <path d="M418.67,77.35c0-36.72-29.87-66.59-66.59-66.59-28.84,0-53.44,18.43-62.68,44.12l-1.3,4.06c-1.69,5.85-2.61,12.02-2.61,18.41v107.35h133.19v-107.35ZM352.08,13.75c35.07,0,63.59,28.53,63.59,63.59v16.47c-1.59,1.21-4.33,3.27-6.02,4.54-.74.56-.87,1.63-.25,2.33,4.36,4.95,1.33,9.42-.96,11.52-.76.7-1.93.73-2.69.03-1.61-1.48-3.08-3.82-3.17-7.16-.06-2.07.83-3.51,1.66-4.4.65-.7.54-1.82-.23-2.38-2.59-1.87-8.07-5.4-15.09-7.45-9.88-2.88-34.57,3.7-44.45,0-9.88-3.7-25.23-29.63-39.63-33.75-4.39-1.25-8.57-1.86-12.27-2.09,9.07-24.07,32.33-41.24,59.53-41.24ZM288.49,181.7v-104.35c0-6.04.86-11.88,2.44-17.41,4.37,1.58,9.03,3.49,12.5,5.49,15.25,8.77,16.77,28.59,32.79,39.82,10.25,7.18,37.39,3.25,41.1,3.25s5.16,3.25,5.16,5.72-2.37,5.69-2.69,8.27c-.53,4.29,2.46,11.43,7.4,15.5,1.97,1.62.65,12.26,1.3,17.95.19,1.64,2.27,4.49,5.14,7.25.38,1.95.79,3.69,1.71,7.97,1.04,4.83,13.78,4.01,18.2,2.81,1.35-.37,1.86-3.07,2.12-5.69v13.42h-127.19Z" fill="#2d4c43"/>
</svg>