<?xml version="1.0" encoding="UTF-8"?>
<svg id="Layer_1" data-name="Layer 1" xmlns="http://www.w3.org/2000/svg" viewBox="0 0 1076.95 951.59">
  <rect width="1076.95" height="951.59" fill="none"/>
  <g>
    <path d="M212.3,799.79c-.68-.05-1.02-.17-1.09-.2-.59-.46-.9-1.5-.9-3.05l-1.65-41.19c0-2.98.4-3.74.55-3.91.23-.24.92-.64,2.87-.64h.64v-2.12h-9.09l-20.39,46.31-20.69-46.31h-11.06v2.12h.64c.38,0,.96.06,1.71.19.66.11,1.19.37,1.6.76.44.44.96,1.54.96,4.29l-2.39,39.9c0,1.48-.36,2.6-1.05,3.38-.24.21-.91.55-2.81.55h-.64v2.12h10.96v-2.12h-.64c-.28,0-.68-.04-1.2-.12-.45-.07-.8-.21-1.02-.38-.25-.27-.67-1.08-.67-3.39l2.56-41.5,21.45,48.75,2.29-.98,20.01-45.98,1.85,39.88c0,2.6-.4,3.34-.53,3.5-.04.02-.39.23-2.16.23h-.64v2.12h12.61v-2.12h-.64c-.34,0-.82-.03-1.43-.08Z" fill="#2d4c43"/>
    <path d="M262.57,793.6c-.25.59-.65,1.4-1.21,2.41-.53.96-1.04,1.64-1.48,1.98-.48.33-1.27.64-2.35.92-1.1.29-2.11.44-3,.44h-15.73c-.33,0-.81-.05-1.42-.15-.47-.07-.8-.22-.96-.43-.17-.23-.28-.55-.32-.95-.06-.48-.08-.87-.08-1.16v-22.78h15.49c.94,0,1.54.24,1.84.73.57.96.85,2.29.85,3.94v.64h2.52v-13.24h-2.63v.64c0,2.38-.34,3.39-.65,3.85-.27.47-.92.71-1.93.71h-15.49v-16.13c0-.42.05-1.01.15-1.74.08-.59.24-1.01.45-1.18.1-.08.35-.23,1.01-.41.55-.15.98-.25,1.19-.29h15.52c2.07,0,3.44.41,4.12,1.29.03.03.32.37.32,2.14,0,.53-.07,1.56-.2,3.07l-.04.48,2.16.84,2.67-10.54h-35.58v2.01l.52.1c.34.07.79.17,1.34.32.65.18.79.31.8.32.32.35.53.77.62,1.29.1.59.16,1.06.16,1.38v42.68c0,.39-.04.91-.12,1.57-.06.52-.2.9-.34,1.03-.46.33-1.18.49-2.12.49h-.64v2.12h34.63l2.73-9.33-2.64.65-.13.3Z" fill="#2d4c43"/>
    <path d="M309.8,797.87l-14.99-23.29c2.24-.14,4.39-.71,6.41-1.68,2.36-1.14,4.27-2.65,5.68-4.48,1.44-1.87,2.16-3.82,2.16-5.8,0-2.36-.62-4.63-1.84-6.77-1.22-2.15-3.08-3.9-5.52-5.21-2.43-1.31-5.42-1.97-8.88-1.97h-16.47v2.01l.52.1c.35.07.8.17,1.35.32.66.18.8.31.81.32.32.35.53.77.61,1.29.1.59.16,1.06.16,1.38v42.68c0,.39-.04.91-.12,1.57-.06.53-.2.9-.34,1.02-.48.33-1.2.5-2.13.5h-.64v2.12h11.77v-2.09l-.61-.03c-.39-.02-.93-.07-1.62-.17-.74-.11-1.09-.28-1.18-.34-.03-.04-.33-.45-.33-2.79v-23.48c.55.27,1.16.51,1.84.74.9.3,1.64.52,2.21.68.26.63,1.03,2.05,3.39,5.74,2.24,3.5,4.58,7.06,6.94,10.58,2.35,3.49,4.1,6.08,5.29,7.8,1.94,2.33,3.74,3.46,5.5,3.46.65,0,1.35-.01,2.1-.04.75-.02,1.3-.05,1.66-.06l.61-.03v-2.09h-.64c-1.65,0-2.87-.65-3.73-1.99ZM284.62,770.81v-18.02c.01-.2.06-.47.13-.81.04-.2.09-.3.08-.33.37-.09,1.89-.25,7.99-.25,4,0,6.82,1.09,8.38,3.23,1.6,2.21,2.42,4.9,2.42,7.99,0,2.42-1.04,4.64-3.08,6.6-2.05,1.97-4.61,2.97-7.61,2.97s-5.65-.47-8.3-1.39Z" fill="#2d4c43"/>
    <path d="M358.92,797.87l-14.99-23.29c2.24-.14,4.39-.71,6.41-1.68,2.36-1.14,4.27-2.65,5.68-4.48,1.44-1.87,2.16-3.82,2.16-5.8,0-2.36-.62-4.63-1.84-6.77-1.22-2.15-3.08-3.9-5.52-5.21-2.43-1.31-5.42-1.97-8.88-1.97h-16.47v2.01l.52.1c.35.07.8.17,1.35.32.66.18.8.31.81.32.32.35.53.77.62,1.29.1.59.16,1.06.16,1.38v42.68c0,.39-.04.91-.12,1.57-.07.53-.2.9-.34,1.02-.48.33-1.2.5-2.13.5h-.64v2.12h11.77v-2.09l-.61-.03c-.39-.02-.93-.07-1.62-.17-.74-.11-1.09-.28-1.18-.34-.03-.04-.33-.45-.33-2.79v-23.48c.55.27,1.16.51,1.84.74.9.3,1.63.52,2.21.68.26.63,1.03,2.05,3.39,5.74,2.24,3.5,4.58,7.06,6.94,10.58,2.35,3.49,4.1,6.08,5.29,7.8,1.94,2.33,3.74,3.46,5.5,3.46.65,0,1.35-.01,2.11-.04.75-.02,1.3-.05,1.66-.06l.61-.03v-2.09h-.64c-1.65,0-2.86-.65-3.73-1.99ZM333.75,770.81v-18.02c.01-.2.06-.47.13-.81.04-.2.09-.3.08-.33.37-.09,1.89-.25,7.99-.25,4,0,6.82,1.09,8.37,3.23,1.6,2.21,2.42,4.9,2.42,7.99,0,2.42-1.04,4.64-3.08,6.6-2.05,1.97-4.61,2.97-7.61,2.97s-5.65-.47-8.3-1.39Z" fill="#2d4c43"/>
    <path d="M376.08,750.68l.52.1c.34.07.79.17,1.34.32.65.18.79.31.8.32.32.35.53.77.62,1.29.1.59.16,1.06.16,1.38v42.68c0,.39-.04.91-.12,1.57-.06.52-.2.9-.34,1.03-.46.33-1.18.49-2.12.49h-.64v2.12h11.47v-2.12h-.64c-.33,0-.81-.05-1.42-.14-.47-.08-.8-.22-.98-.46-.16-.19-.26-.49-.3-.89-.06-.5-.08-.9-.08-1.19v-42.76c0-.42.05-1.01.15-1.74.08-.59.24-1.01.49-1.22.1-.09.35-.26.96-.4.56-.13.99-.22,1.3-.27l.54-.09v-2.02h-11.67v2.01Z" fill="#2d4c43"/>
    <path d="M464.44,799.79c-.68-.05-1.02-.17-1.09-.2-.59-.46-.9-1.5-.9-3.05l-1.65-41.19c0-2.98.4-3.74.56-3.91.23-.24.92-.64,2.87-.64h.64v-2.12h-9.09l-20.39,46.31-20.69-46.31h-11.06v2.12h.64c.38,0,.96.06,1.71.19.66.11,1.19.37,1.6.76.44.44.96,1.54.96,4.29l-2.39,39.9c0,1.48-.36,2.6-1.05,3.38-.24.21-.91.55-2.81.55h-.64v2.12h10.96v-2.12h-.64c-.28,0-.68-.04-1.2-.12-.45-.07-.8-.21-1.02-.38-.25-.27-.67-1.08-.67-3.39l2.56-41.5,21.45,48.75,2.29-.98,20.01-45.98,1.85,39.88c0,2.6-.4,3.34-.53,3.5-.03.02-.39.23-2.15.23h-.64v2.12h12.61v-2.12h-.64c-.34,0-.82-.03-1.43-.08Z" fill="#2d4c43"/>
    <path d="M518.2,751.39c-4.1-2.5-8.64-3.76-13.52-3.76s-9.03,1.3-12.92,3.85c-3.89,2.55-6.97,6-9.17,10.26-2.2,4.25-3.31,8.82-3.31,13.58,0,3.57.64,7.07,1.9,10.41,1.26,3.35,3.05,6.35,5.33,8.92,2.28,2.59,5.02,4.65,8.13,6.13,3.12,1.48,6.51,2.23,10.05,2.23,4.84,0,9.38-1.27,13.49-3.78,4.11-2.5,7.4-5.92,9.78-10.17,2.38-4.24,3.59-8.87,3.59-13.75s-1.21-9.56-3.59-13.79c-2.38-4.24-5.66-7.65-9.75-10.14ZM524.01,787.14c-1.23,3.71-3.44,6.84-6.55,9.33-3.1,2.47-7.33,3.72-12.57,3.72-3.47,0-6.76-1.13-9.8-3.36-3.06-2.25-5.52-5.3-7.33-9.09-1.81-3.79-2.73-7.87-2.73-12.12s.68-8.18,2.02-12.09c1.33-3.87,3.51-7.11,6.48-9.63,2.94-2.5,6.76-3.76,11.36-3.76,3.05,0,6.26,1.15,9.53,3.43,3.3,2.29,6.07,5.42,8.23,9.29,2.15,3.86,3.25,8.01,3.25,12.35s-.63,8.15-1.88,11.92Z" fill="#2d4c43"/>
    <path d="M579.49,750.74l.59.05c.39.03.93.11,1.6.23.74.13,1.1.33,1.27.46.29.24.47.58.56,1.02.1.55.15.99.15,1.28v37.51l-31.4-42.62h-8.96v2.12h.64c.37,0,.89.03,1.55.1.73.07,1.07.21,1.22.3.65.44.96,1.25.96,2.49v39.76c0,.87-.06,2.05-.18,3.48-.15,1.84-.47,2.21-.47,2.22-.68.48-1.58.72-2.65.72h-.64v2.12h10.6v-2.12h-.64c-.34,0-.84-.03-1.47-.08-.59-.05-1.06-.14-1.28-.2-.09-.11-.55-.92-.55-6.15v-39.25l36,49.11v-49.51c0-.31.06-.74.19-1.28.1-.43.32-.75.65-.97.81-.49,1.78-.74,2.89-.74h.64v-2.12h-11.26v2.07Z" fill="#2d4c43"/>
    <path d="M625.67,772.09c-.64,1.12-1.27,1.9-1.88,2.3-.5.32-1.64.71-4.25.71h-15.22l-3.99,6.6,2.02,1.09.33-.45c1.19-1.63,1.53-1.96,1.61-2.02.22-.13,1.05-.41,4.03-.41h15.67l4.04-7.36-2.07-.97-.29.51Z" fill="#2d4c43"/>
    <path d="M694.57,750.79h.64c.35,0,.84.05,1.45.14.32.05.74.17.97.47,0,0,.06.14.06.6,0,.82-.13,1.73-.37,2.7-.26,1.01-.47,1.78-.64,2.32l-12.74,39.76-9.3-28.32,3.47-11.08c.22-.8.58-1.89,1.09-3.26.48-1.29.99-2.18,1.54-2.65.5-.45,1.38-.68,2.6-.68h.64v-2.12h-24.27v2.05l.57.06c.43.05.98.14,1.67.27.82.16,1.02.34,1.06.39.21.21.59.72,1.17,1.98.49,1.07.85,1.93,1.08,2.55l5.54,15.83-7.87,24.65-13.34-40.18c-.2-.53-.45-1.31-.76-2.32-.29-.97-.44-1.79-.44-2.46,0-.19.04-.37.1-.49.08-.13.49-.54,2.28-.54h.64v-2.09h-12.74v2.02l.57.06c.42.05.98.15,1.68.29.88.18,1.06.35,1.07.37.2.19.56.69,1.14,1.97.49,1.09.85,1.96,1.09,2.58l16.49,47.47,3.6-2.22.07-.23c.75-2.41,1.86-5.98,3.35-10.73,1.33-4.25,2.83-8.94,4.49-14.07l9.52,27.55,3.57-2.19,14.03-43.88c.2-.79.55-1.88,1.06-3.25.47-1.28,1-2.17,1.57-2.66.49-.44,1.35-.67,2.56-.67h.64v-2.12h-10.63v2.12ZM670.64,756.58c-.2-.53-.46-1.32-.77-2.36-.3-.99-.46-1.81-.46-2.42,0-.18.04-.33.11-.45.02-.02.41-.46,3.31-.46s3.51.43,3.57.49c0,0,.06.14.06.62,0,.82-.13,1.73-.37,2.7-.26,1.01-.47,1.78-.64,2.32l-2.32,7.01-2.5-7.45Z" fill="#2d4c43"/>
    <path d="M751.47,750.76l.62.02c.38.01.88.08,1.48.18.49.09.65.22.66.22.16.47.17.61.17.61,0,.45-.08.83-.24,1.14-.19.35-.34.6-.48.78l-11.76,16.77-12.44-16.86c-.22-.22-.5-.56-.84-1.02-.28-.37-.42-.72-.42-1,0,0,.01-.09.11-.29.08-.12.46-.53,2.27-.53h.64v-2.12h-12.74v2.02l.54.09c.42.07.97.17,1.66.32.83.18,1.11.34,1.19.39.44.33.9.76,1.37,1.29.49.55.86.98,1.09,1.28l13.52,18.08c.55.84.83,1.77.83,2.77v21.85c0,.39-.04.91-.12,1.57-.06.53-.2.9-.34,1.02-.48.33-1.2.5-2.13.5h-.64v2.12h11.47v-2.12h-.64c-.34,0-.81-.05-1.42-.14-.48-.08-.82-.23-1-.46-.1-.12-.22-.37-.28-.88-.06-.51-.08-.91-.08-1.2v-21.95c0-1.86.37-2.66.73-3.07l11.97-17.71c.26-.39.66-.91,1.19-1.56.51-.62.99-1.07,1.4-1.35.81-.49,1.71-.74,2.69-.74h.64v-2.12h-10.65v2.09Z" fill="#2d4c43"/>
    <path d="M810.37,750.74l.59.05c.39.03.93.11,1.6.23.74.13,1.1.33,1.27.46.29.24.47.58.56,1.02.1.55.15.99.15,1.28v37.51l-31.4-42.62h-8.96v2.12h.64c.37,0,.89.03,1.55.1.73.07,1.07.21,1.22.3.65.44.96,1.25.96,2.49v39.76c0,.87-.06,2.05-.18,3.48-.15,1.84-.47,2.21-.47,2.22-.68.48-1.57.72-2.65.72h-.64v2.12h10.6v-2.12h-.64c-.34,0-.84-.03-1.47-.08-.59-.05-1.06-.14-1.27-.2-.09-.11-.55-.92-.55-6.15v-39.25l36,49.11v-49.51c0-.31.06-.74.19-1.28.1-.43.32-.75.65-.97.81-.49,1.78-.74,2.89-.74h.64v-2.12h-11.26v2.07Z" fill="#2d4c43"/>
    <path d="M868.64,750.74l.59.05c.39.03.93.11,1.6.23.74.13,1.1.33,1.27.46.29.24.47.58.56,1.02.1.55.15.99.15,1.28v37.51l-31.4-42.62h-8.96v2.12h.64c.37,0,.89.03,1.55.1.73.07,1.07.21,1.22.3.65.44.96,1.25.96,2.49v39.76c0,.87-.06,2.05-.18,3.48-.15,1.84-.47,2.21-.47,2.22-.68.48-1.57.72-2.65.72h-.64v2.12h10.6v-2.12h-.64c-.34,0-.84-.03-1.47-.08-.59-.05-1.06-.14-1.28-.2-.09-.11-.55-.92-.55-6.15v-39.25l36,49.11v-49.51c0-.31.06-.74.19-1.28.1-.43.32-.75.65-.97.81-.49,1.78-.74,2.89-.74h.64v-2.12h-11.26v2.07Z" fill="#2d4c43"/>
    <path d="M927.08,793.3l-.12.3c-.25.59-.65,1.4-1.22,2.41-.53.96-1.04,1.64-1.48,1.98-.48.33-1.27.64-2.35.92-1.1.29-2.11.44-3,.44h-15.73c-.33,0-.81-.05-1.42-.15-.47-.07-.8-.22-.96-.43-.17-.23-.28-.55-.32-.95-.06-.48-.08-.87-.08-1.16v-22.78h15.49c.94,0,1.54.24,1.84.73.57.96.85,2.29.85,3.94v.64h2.52v-13.24h-2.63v.64c0,2.38-.34,3.39-.65,3.85-.27.47-.92.71-1.93.71h-15.49v-16.13c0-.42.05-1.01.15-1.74.08-.59.24-1.01.45-1.18.1-.08.35-.23,1.01-.41.55-.15.98-.25,1.19-.29h15.52c2.07,0,3.44.41,4.12,1.29.03.03.32.37.32,2.14,0,.53-.07,1.56-.2,3.07l-.04.48,2.16.84,2.67-10.54h-35.58v2.01l.52.1c.34.07.79.17,1.34.32.65.18.79.31.8.32.32.35.53.77.62,1.29.1.59.16,1.06.16,1.38v42.68c0,.39-.04.91-.12,1.57-.06.52-.2.9-.34,1.03-.46.33-1.18.49-2.12.49h-.64v2.12h34.63l2.73-9.33-2.64.65Z" fill="#2d4c43"/>
    <path d="M275.8,438.53v1.84h8.62v-1.84h-.62c-.23,0-.57-.03-1.01-.1-.21-.03-.49-.11-.63-.27-.05-.06-.13-.21-.17-.56-.04-.36-.06-.65-.06-.85v-29.17c0-.3.03-.72.11-1.24.07-.52.21-.71.3-.79.05-.04.2-.16.62-.26.4-.09.71-.16.93-.19l.52-.08v-1.75h-8.78v1.74l.5.1c.25.05.57.12.97.23.41.11.52.19.52.2.21.22.34.49.4.84.07.44.11.77.11.99v29.09c0,.28-.03.65-.09,1.12-.06.47-.18.63-.18.63h0c-.32.22-.81.33-1.45.33h-.62Z" fill="#2d4c43"/>
    <path d="M294.55,422.08c-1.25,2.29-1.88,4.74-1.88,7.28,0,1.73.47,3.47,1.41,5.17.93,1.7,2.18,3.1,3.71,4.18,1.56,1.1,3.19,1.66,4.85,1.66,1.99,0,3.78-.58,5.3-1.72,1.5-1.12,2.66-2.56,3.47-4.27.8-1.7,1.2-3.39,1.2-5.02,0-2.43-.7-4.74-2.08-6.87-1.09-1.68-2.37-3.02-3.84-3.99,1.03-.47,1.98-1.19,2.84-2.15,1.25-1.39,1.88-2.98,1.88-4.71,0-1.46-.36-2.93-1.08-4.35-.72-1.43-1.75-2.62-3.06-3.53-1.33-.93-2.84-1.4-4.48-1.4-2.68,0-4.83.91-6.41,2.69-1.56,1.77-2.34,3.88-2.34,6.3,0,1.78.58,3.4,1.71,4.8.73.91,1.55,1.6,2.44,2.08-1.45.79-2.67,2.08-3.64,3.86ZM297.46,411.26c0-1.65.43-3.24,1.28-4.72.8-1.39,2.05-2.06,3.83-2.06,1.41,0,2.62.63,3.7,1.94,1.09,1.32,1.64,3.05,1.64,5.14,0,1.5-.44,2.81-1.35,4.01-.87,1.15-2.15,1.7-3.92,1.7-1.38,0-2.56-.58-3.6-1.76-1.06-1.21-1.57-2.6-1.57-4.25ZM297.73,422.3c.88-2.05,2.48-3.04,4.91-3.04,1.76,0,3.21.94,4.43,2.87,1.26,1.99,1.89,4.32,1.89,6.91,0,2.22-.55,4.36-1.64,6.36-1.03,1.91-2.52,2.83-4.53,2.83-.98,0-1.97-.45-2.95-1.34-1.04-.94-1.89-2.12-2.54-3.51-.65-1.38-.97-2.66-.97-3.8,0-2.64.48-5.09,1.41-7.27Z" fill="#2d4c43"/>
    <path d="M764.66,403.25l-2.54,3.33,1.35.96.35-.52c.23-.34.57-.58,1.04-.73.16-.05.59-.14,1.69-.14h10.5l-13.22,35.8,4.81-2.51,12.26-36.18h-16.24Z" fill="#2d4c43"/>
    <path d="M798.73,441.12c2.23,0,4.2-.66,5.86-1.97,1.63-1.29,2.89-2.96,3.74-4.99.84-2.01,1.27-4.06,1.27-6.09s-.41-3.83-1.21-5.51c-.81-1.69-1.91-3.06-3.26-4.05-1.38-1.01-2.88-1.53-4.44-1.53-2.47,0-4.56,1.3-6.21,3.87.11-.3.22-.6.34-.9.91-2.24,2.05-4.39,3.37-6.4,1.33-2.02,2.66-3.83,3.96-5.39,1.3-1.57,2.54-2.97,3.68-4.16l1.51-1.59-3.93,1.04-.11.11c-1.54,1.46-3.4,3.51-5.53,6.07-2.13,2.57-4.06,5.44-5.71,8.53-1.68,3.14-2.53,6.15-2.53,8.92,0,3.57.76,6.8,2.27,9.61,1.57,2.93,3.91,4.42,6.94,4.42ZM794.7,424.41c1.42-3.35,3.18-4.98,5.4-4.98,1.61,0,2.9.77,3.93,2.35,1.08,1.64,1.62,3.53,1.62,5.62,0,1.71-.22,3.5-.66,5.33-.43,1.79-1.12,3.3-2.06,4.51-.89,1.13-1.99,1.68-3.37,1.68s-2.4-.59-3.3-1.81c-.96-1.3-1.68-2.95-2.12-4.92-.38-1.67-.56-3.33-.63-4.98l1.18-2.79ZM793.51,425.03v2.08c-.01-.31-.05-.62-.05-.92,0-.38.02-.77.05-1.16Z" fill="#2d4c43"/>
    <path d="M443.59,277.18c1.87.32,3.35,1.03,4.51,2.15,1.23,1.23,2.69,4.35,2.7,12.09l-6.73,112.51c-.11,2-.7,5.52-1.95,7.98-.63,1.25-1.79,2.17-3.15,2.53-1.23.33-3.06.58-5.78.58h-1.8v5.97s33.31.45,35.5.76c2.5.35,2.98.99,3.03,1.05.57.54,1.59,1.94,3.22,5.55,1.38,3.08,2.41,5.51,3.06,7.27l46.51,133.86,10.15-6.26.2-.64c2.1-6.78,5.25-16.87,9.45-30.27,3.76-11.98,7.98-25.21,12.66-39.67l26.84,77.69,13.81-6.18s46.91-149.71,47.98-154.53c1.68-7.55,5.79-19.12,3.23-31.18-4.27-20.05-27.3-32.38-46.59-32.65l-2.26-56.31c0-8.39,1.13-10.54,1.57-11.02.66-.68,2.58-1.82,8.09-1.82h1.8v-5.97h-25.62l-57.51,130.6-58.35-130.6h-31.2v5.97h1.8c1.08,0,2.7.18,4.82.54ZM550.64,438.19c-.56-1.5-1.29-3.73-2.18-6.67-.85-2.8-1.28-5.1-1.28-6.82,0-.52.11-.93.32-1.26.04-.05,1.14-1.3,9.33-1.3s9.89,1.21,10.05,1.38c0,.01.18.4.18,1.76,0,2.33-.36,4.89-1.05,7.61-.73,2.84-1.33,5.02-1.8,6.53l-6.53,19.77-7.04-21ZM588.29,421.86h26v-6.84h-1.8c-.97,0-2.32-.08-4.04-.21-1.92-.15-2.88-.48-3.08-.55-1.66-1.29-2.53-4.24-2.53-8.61l-2.25-56.23c3.11.22,10.13,1.99,13.32,3.17,10.75,3.99,26.38,16.48,26,34.29-.14,6.45-1.12,13.3-7.66,33.85-.02.06-42.02,134.98-42.02,134.98l-28.27-84.02,9.8-31.24c.61-2.25,1.64-5.34,3.07-9.2,1.34-3.63,2.8-6.14,4.35-7.48,1.42-1.26,3.88-1.91,7.32-1.91h1.8ZM582.9,292.05l2.6,56.04c-21.48,6.97-32.52,30.41-27.43,52.09-4.06-22.99,8.35-43.13,27.57-49.09l2.11,53.37c0,8.07-.77,9.47-1.13,9.9-.1.07-1.09.66-6.08.66h-1.8v.02h-49.37l53.53-122.99ZM452.32,404.04c.9-29.3,7.21-117.02,7.21-117.02l60.33,134.64,1.59.18c1.21.15,2.77.42,4.71.77,4.24.76,4.67,3.12,6.29,6.68,1.38,3.03,2.41,5.44,3.06,7.19l15.63,44.64-22.2,69.51-37.61-113.29c-.56-1.5-1.28-3.69-2.15-6.55-.83-2.73-1.25-5.06-1.25-6.93,0-.53.13-1.04.29-1.4.23-.36,1.37-1.53,6.43-1.53h1.8v-5.9h-34.17s-1.8-.01-1.8-.01c-.8,0-1.92-.12-3.38-.34-1.27-.19-2.22-.45-2.88-1.08-1.31-1.26-2.09-3.06-1.89-9.56Z" fill="#2d4c43"/>
    <path d="M523.95,661.05c6.91,1.06,13.92,1.66,21.04,1.66,103.36,0,187.45-115.11,187.45-256.6s-84.09-256.6-187.45-256.6c-7.11,0-14.13.6-21.04,1.66-101.04,2.35-182.72,115.77-182.72,254.94s81.68,252.59,182.72,254.94ZM726.25,406.11c0,125.8-67.5,230.19-155.09,247.76,81.32-27.2,141.88-127.94,141.88-247.76s-60.56-220.56-141.88-247.76c87.59,17.58,155.09,121.97,155.09,247.76ZM544.99,155.7c.92,0,1.83.08,2.75.1,91.13,14.16,162.2,120.99,162.2,250.31s-71.07,236.15-162.2,250.31c-.92.02-1.83.1-2.75.1-99.95,0-181.26-112.33-181.26-250.41s81.31-250.41,181.26-250.41ZM500.62,156.83c-82.01,27.36-143.08,128.71-143.08,249.27s61.07,221.91,143.08,249.27c-88.28-17.76-156.29-122.76-156.29-249.27s68.02-231.52,156.29-249.27Z" fill="#2d4c43"/>
  </g>
</svg>