<?xml version="1.0" encoding="UTF-8"?>
<svg id="Layer_1" data-name="Layer 1" xmlns="http://www.w3.org/2000/svg" viewBox="0 0 410.01 255.82">
  <polygon points="100.06 247.03 102.06 247.03 102.06 241.38 108.36 241.38 108.36 239.54 102.06 239.54 102.06 235.76 109.21 235.76 109.21 233.92 100.06 233.92 100.06 247.03" fill="#2d4c43"/>
  <polygon points="117.39 233.92 115.4 233.92 115.4 247.03 123.12 247.03 123.12 245.14 117.39 245.14 117.39 233.92" fill="#2d4c43"/>
  <path d="M133.93,233.74c-4.25,0-6.23,3.15-6.23,6.73s1.98,6.74,6.23,6.74,6.22-3.16,6.22-6.74-1.98-6.73-6.22-6.73ZM133.93,245.43c-2.97,0-4.12-2.31-4.12-4.96s1.15-4.95,4.12-4.95,4.12,2.31,4.12,4.95-1.15,4.96-4.12,4.96Z" fill="#2d4c43"/>
  <path d="M155.21,237.7c0-2.41-2-3.79-4.48-3.79h-4.04v13.11h2v-5.71h1.17c.27,0,.55,0,.8,0l3.29,5.71h2.28l-3.65-5.92c1.56-.47,2.63-1.71,2.63-3.4ZM148.69,239.69v-3.98h2.05c1.54,0,2.49.78,2.49,2.03,0,1.18-.85,1.9-2.33,1.95h-2.21Z" fill="#2d4c43"/>
  <path d="M165.76,233.92l-5.12,13.11h2.18l1.08-2.95h5.27l1.07,2.95h2.15l-5.1-13.11h-1.53ZM164.53,242.36l2.01-5.54,2,5.54h-4.02Z" fill="#2d4c43"/>
  <polygon points="180.29 233.92 178.3 233.92 178.3 247.03 186.03 247.03 186.03 245.14 180.29 245.14 180.29 233.92" fill="#2d4c43"/>
  <path d="M209.22,240.78l-1.87-.19c-.02.8-.19,1.58-.48,2.26l-2.24-2.53c1.37-.85,2.57-1.87,2.57-3.53s-1.52-3.02-3.39-3.02-3.54,1.16-3.54,3.04c0,1.41,1.07,2.57,1.62,3.15-1.59.9-3.11,2-3.11,4.02s1.82,3.22,4.19,3.22c1.56,0,2.93-.57,3.99-1.52l1.73,2,1.35-1.21-1.93-2.19c.63-1,1.01-2.21,1.09-3.52ZM203.84,235.28c1,0,1.6.71,1.6,1.56,0,1-.9,1.66-2.04,2.31-.43-.5-1.27-1.49-1.27-2.3,0-.99.78-1.57,1.72-1.57ZM202.94,245.59c-1.37,0-2.29-.55-2.29-1.57,0-1.22,1.13-2.01,2.45-2.79l2.75,3.16c-.73.74-1.73,1.2-2.9,1.2Z" fill="#2d4c43"/>
  <path d="M227.84,233.92h-3.71v13.11h3.69c4.38,0,6.8-2.37,6.8-6.46s-2.36-6.65-6.78-6.65ZM227.63,245.19h-1.51v-9.43h1.69c3.38,0,4.82,1.44,4.82,4.73s-1.9,4.7-4.99,4.7Z" fill="#2d4c43"/>
  <polygon points="241.14 247.03 249.82 247.03 249.82 245.14 243.14 245.14 243.14 241.38 249.28 241.38 249.28 239.54 243.14 239.54 243.14 235.76 249.82 235.76 249.82 233.92 241.14 233.92 241.14 247.03" fill="#2d4c43"/>
  <path d="M258.18,237.17c0-.96.82-1.65,1.89-1.65.99,0,1.8.52,2.31,1.48l1.65-1.02c-.87-1.55-2.28-2.24-3.9-2.24-2.15,0-3.95,1.3-3.95,3.53,0,4.21,6.48,3.23,6.48,6.19,0,1.09-.89,1.94-2.42,1.94s-2.72-.8-2.92-2.5l-1.98.5c.41,2.5,2.57,3.77,4.86,3.77,2.47,0,4.45-1.49,4.45-3.89,0-4.34-6.48-3.42-6.48-6.11Z" fill="#2d4c43"/>
  <rect x="270.97" y="233.92" width="1.99" height="13.11" fill="#2d4c43"/>
  <path d="M286.54,241.67h3.03l-.05.34c-.16,2.23-1.64,3.4-3.8,3.4-2.97,0-4.23-2.25-4.23-5.03s1.33-4.92,4.23-4.92c1.81,0,3.19.83,3.83,2.69l1.77-.74c-1.03-2.41-3.01-3.69-5.58-3.69-4.22,0-6.23,3.05-6.23,6.75s2.03,6.74,6.21,6.74c1.86,0,3.3-.83,4.05-2.19l.18,2.01h1.59v-6.98h-5v1.61Z" fill="#2d4c43"/>
  <polygon points="306.32 243.72 300.47 233.92 298.46 233.92 298.46 247.03 300.38 247.03 300.38 237.19 306.22 247.03 308.23 247.03 308.23 233.92 306.32 233.92 306.32 243.72" fill="#2d4c43"/>
  <polygon points="31.29 199.65 15.89 173.87 10.61 173.87 10.61 208.37 15.67 208.37 15.67 182.49 31.02 208.37 36.32 208.37 36.32 173.87 31.29 173.87 31.29 199.65" fill="#2d4c43"/>
  <path d="M58.37,173.87l-13.48,34.5h5.74l2.86-7.76h13.87l2.81,7.76h5.66l-13.43-34.5h-4.03ZM55.12,196.09l5.3-14.58,5.27,14.58h-10.57Z" fill="#2d4c43"/>
  <polygon points="104.87 173.87 77.19 173.87 77.19 178.58 88.42 178.58 88.42 208.37 93.67 208.37 93.67 178.58 104.87 178.58 104.87 173.87" fill="#2d4c43"/>
  <rect x="113.51" y="173.87" width="5.25" height="34.5" fill="#2d4c43"/>
  <polygon points="143.1 199.95 133.11 173.87 127.3 173.87 141.07 208.37 145.08 208.37 158.8 173.87 153.03 173.87 143.1 199.95" fill="#2d4c43"/>
  <polygon points="167.31 208.37 190.14 208.37 190.14 203.41 172.56 203.41 172.56 193.5 188.72 193.5 188.72 188.67 172.56 188.67 172.56 178.71 190.14 178.71 190.14 173.87 167.31 173.87 167.31 208.37" fill="#2d4c43"/>
  <path d="M234.37,189.99c2.17-1.05,4.13-3.69,4.13-6.96,0-6.67-5.4-9.16-10.82-9.16h-11.45v34.5h12.79c6.05,0,11.16-3.52,11.16-9.84,0-3.74-2.44-7.4-5.81-8.54ZM221.48,178.61h6.3c3.47,0,5.88,1.59,5.88,4.71,0,3.59-2.49,4.86-5.22,4.86h-6.96v-9.57ZM229.1,203.36h-7.62v-10.64h7.74c3.59,0,5.81,2.27,5.81,5.22,0,3.64-2.12,5.42-5.93,5.42Z" fill="#2d4c43"/>
  <polygon points="255.56 173.87 250.31 173.87 250.31 208.37 270.65 208.37 270.65 203.41 255.56 203.41 255.56 173.87" fill="#2d4c43"/>
  <path d="M294.55,172.87c-10,0-17.45,7.75-17.45,18s7.4,18,17.45,18,17.4-7.75,17.4-18-7.45-18-17.4-18ZM294.55,203.67c-6.8,0-11.85-5.55-11.85-12.8s5.05-12.8,11.85-12.8,11.8,5.55,11.8,12.8-5,12.8-11.8,12.8Z" fill="#2d4c43"/>
  <path d="M337.5,172.87c-10,0-17.45,7.75-17.45,18s7.4,18,17.45,18,17.4-7.75,17.4-18-7.45-18-17.4-18ZM337.5,203.67c-6.8,0-11.85-5.55-11.85-12.8s5.05-12.8,11.85-12.8,11.8,5.55,11.8,12.8-5,12.8-11.8,12.8Z" fill="#2d4c43"/>
  <polygon points="392.29 173.87 382.33 201.84 372.34 173.87 365.24 173.87 365.24 208.37 370.29 208.37 370.29 181.12 380.14 208.37 384.62 208.37 394.34 181.12 394.34 208.37 399.39 208.37 399.39 173.87 392.29 173.87" fill="#2d4c43"/>
  <path d="M204.43,150.04c29.99,0,54.4-24.4,54.4-54.4v-33.12c0-30-24.4-54.4-54.4-54.4s-54.4,24.4-54.4,54.4v33.12c0,30,24.4,54.4,54.4,54.4ZM153.03,62.52c0-28.34,23.06-51.4,51.4-51.4s51.4,23.06,51.4,51.4v33.12c0,27.03-20.98,49.24-47.5,51.23-1.47-11.74-3.42-35.07-1.54-50.46,5.25-.27,11.06-1.92,16.33-6.47,2.14-1.85,3.08-4.36,2.58-6.89-.52-2.63-2.52-4.82-5.2-5.71-3.45-1.14-7.44.03-10.94,3.21-2.61,2.37-4.25,7.09-5.22,13-2.02-.06-3.91-.32-5.6-.67-8.79-1.81-15.8-6.67-18.5-10.2.82-.37,1.66-.81,2.51-1.34,2.94-1.84,5.2-4.13,6.07-5.06,1.39.37,2.9.57,4.57.57,2.88,0,6.22-.59,10.2-1.89,1.85.69,3.95,1.09,6.34,1.09.3,0,.61,0,.93-.02,13.65-.57,20.27-12.24,22.41-18.94,2.43,1.44,7.49,5.22,6.26,11.17-.79,3.8-4.66,7.27-11.56,6.42l-.35,2.87c.85.1,1.67.15,2.44.15,7.21,0,11.34-4.25,12.29-8.85,1.53-7.41-4.43-12.61-8.37-14.67.06-.39.09-.74.09-1,0-3.27-1.11-13.95-15.34-14.1-.07,0-.13,0-.2,0-4.18,0-8.34,1.41-12.11,3.38-1.52-2.36-4.25-5.33-10.25-5.33-6.48,0-10.04,4.51-11.57,7.15-1.19-1.01-2.31-1.69-3.24-1.73-1.21-.06-2.27.82-3.16,2.59-.32.63-.62,1.4-.9,2.25-1.42-1.76-3.57-3.8-6.13-4.13-1.3-.17-3.26.05-5.2,2.06-3.94,4.07-1.44,7.32.39,9.69,1.05,1.37,2.05,2.66,2,3.99-.04.94-.85,2.49-1.72,4.13-2.59,4.92-6.5,12.35,2.3,18.88,1.77,1.31,3.75,1.97,5.88,1.97.83,0,1.69-.11,2.57-.31,2.96,4.51,11.22,10.09,20.76,12.06,1.74.36,3.69.64,5.77.72-2.18,17.78.66,43.63,1.51,50.59-.33,0-.67.03-1,.03-28.34,0-51.4-23.06-51.4-51.4v-33.12ZM207.21,93.49c.85-5.04,2.22-8.93,4.29-10.8,2.53-2.29,4.7-2.89,6.28-2.89.74,0,1.36.13,1.81.28,1.7.56,2.96,1.92,3.28,3.53.3,1.51-.28,2.98-1.63,4.14-4.5,3.88-9.46,5.4-14.03,5.73ZM168.65,53.23c-1.94-2.52-2.71-3.73-.6-5.92.9-.93,1.79-1.33,2.75-1.21,2.32.3,4.67,3.45,5.59,4.97-1.14,6.01-1.05,13.85,2.13,17.74,2.24,2.74,4.56,4.94,7.35,6.34-2.72,2.67-9.74,8.57-15.21,4.52-6.81-5.05-3.97-10.45-1.47-15.21,1.07-2.02,1.99-3.77,2.05-5.37.09-2.37-1.34-4.23-2.6-5.86ZM201.8,64.88c.66.33,1.46.16,1.94-.4.92-1.07,3.26-3.44,5.13-2.19,1.94,1.29.86,5.38-.9,9.05-1.17.42-2.51.67-4.06.64-3.05-1.31-5.55-3.72-7.46-7.21-1.75-3.2-2.52-6.48-2.83-8.14,1.92-.59,5.14-1.2,6.48.18,1.66,1.71,1.06,5.25.83,6.29-.15.72.2,1.46.86,1.78ZM204.13,60.26c-.01-1.15-.19-2.37-.66-3.48,2.65-.41,7.52-.6,10.87,2.61.5.48.95,1,1.36,1.52-.27,1.84-.88,3.7-1.86,5.35-.39.67-.95,1.48-1.68,2.27.96-3.27,1.1-6.8-1.68-8.65-1.89-1.26-4.14-1.09-6.35.38ZM216.33,67.73c.61-1.04,1.1-2.15,1.48-3.27,1.14,2.57,1.54,4.99,1.67,6.21-2.39,1.36-5.22,2.28-8.54,2.46,2.15-1.22,4-3.04,5.38-5.39ZM218.7,60.13c.23-2.94-.32-5.8-1.67-8-1.82-2.97-4.77-4.61-6.93-5.81-.89-.5-1.82-1.01-2.14-1.36,0,0-.02-.02-.02-.03,3.37-1.75,7.01-2.98,10.6-2.98.05,0,.11,0,.16,0,3.75.04,12.48,1.21,12.48,11.21,0,1.3-2.31,10.19-9.05,15.67-.39-2.24-1.31-5.58-3.44-8.7ZM208.7,48.84c1.98,1.1,4.44,2.47,5.87,4.79.55.9.91,1.96,1.11,3.11-5.06-4.2-11.9-3.07-14.18-2.53-1.4-1-3.19-1.23-4.88-1.11,2.2-2.03,5.28-4.59,8.81-6.76.13.19.26.39.41.55.64.71,1.63,1.25,2.87,1.95ZM192.19,53.35c-1.43-2.08-3.43-4.8-5.44-7,.95-1.87,3.82-6.36,9.44-6.36,4.47,0,6.47,1.95,7.73,3.87-5.37,3.28-9.68,7.39-11.72,9.49ZM190.63,56.19c.3,2.01,2.09,11.78,9.26,16.82-9.73,2.52-14.39-.23-19.14-6.03-2.51-3.07-2.47-9.77-1.68-14.58.71-4.27,1.81-6.43,2.33-6.95,1.47.52,5.63,5.34,9.23,10.73Z" fill="#2d4c43"/>
  <path d="M209.63,120.06v1.53l1.53-.09c.28-.02,28.36-1.93,28.36-29.82v-1.44h-1.44c-20.97,0-28.45,15.4-28.45,29.82ZM212.55,118.45c.34-7.45,3.4-24.53,24.05-25.3-.81,20.5-18.56,24.54-24.05,25.3Z" fill="#2d4c43"/>
</svg>